<svg width="588" height="588" viewBox="0 0 588 588" fill="none" xmlns="http://www.w3.org/2000/svg">
<path d="M294 0C456.372 0 588 131.628 588 294C588 456.372 456.372 588 294 588C131.628 588 0 456.372 0 294C0 131.628 131.628 0 294 0ZM294 73.2236C172.069 73.2236 73.2236 172.069 73.2236 294C73.2236 415.931 172.069 514.776 294 514.776C415.931 514.776 514.776 415.931 514.776 294C514.776 172.069 415.931 73.2236 294 73.2236ZM280.825 380.707C288.307 380.707 294.651 383.291 299.855 388.459C305.06 393.627 307.663 399.925 307.663 407.354C307.663 414.782 305.06 421.08 299.855 426.248C294.651 431.416 288.307 434 280.825 434C273.343 434 267 431.416 261.795 426.248C256.59 421.08 253.988 414.782 253.988 407.354C253.988 399.925 256.59 393.627 261.795 388.459C267 383.291 273.343 380.707 280.825 380.707ZM291.072 153C316.446 153 336.777 159.459 352.066 172.379C367.356 184.975 375 201.933 375 223.25C375 235.524 373.373 245.052 370.12 251.835C367.192 258.94 363.615 265.077 359.386 270.245C355.157 275.09 347.837 282.034 337.428 291.077C323.765 302.382 314.494 312.233 309.614 320.631C305.06 329.029 302.783 339.364 302.783 351.638C302.783 355.919 299.312 359.39 295.031 359.39H265.644C261.362 359.39 257.892 355.919 257.892 351.638C257.892 336.457 260.006 324.507 264.235 315.786C267.814 307.066 272.204 299.475 277.409 293.016C282.614 286.233 290.584 278.481 301.319 269.761C313.03 259.748 320.838 251.834 324.741 246.021C328.645 239.884 330.597 232.778 330.597 224.703C330.597 215.014 326.855 207.423 319.373 201.933C311.891 196.442 300.994 193.696 286.681 193.696C274.559 193.696 261.788 196.2 248.37 201.205C237.049 205.428 223.852 200.629 219.583 189.325C215.874 179.503 220.348 168.372 230.184 164.699C237.904 161.816 245.351 159.532 252.524 157.845C264.886 154.615 277.735 153 291.072 153Z" fill="white"/>
</svg>
