<svg width="491" height="654" viewBox="0 0 491 654" fill="none" xmlns="http://www.w3.org/2000/svg">
<path d="M245 0C338.888 0 415 76.1116 415 170C415 231.113 382.75 284.692 334.343 314.653C365.807 326.874 394.718 345.568 419.047 369.897C465.081 415.932 490.943 478.37 490.943 543.473V601.287C490.943 630.123 467.567 653.498 438.731 653.498C409.896 653.498 386.519 630.123 386.519 601.287V543.473C386.519 506.065 371.657 470.189 345.206 443.737C318.755 417.286 282.879 402.426 245.472 402.426C208.064 402.426 172.189 417.286 145.737 443.737C119.286 470.189 104.425 506.064 104.425 543.472V601.287C104.424 630.123 81.0484 653.498 52.2129 653.498C23.3772 653.498 0.000152588 630.122 0 601.286V543.472C0.000244141 478.369 25.8629 415.932 71.8975 369.897C96.0771 345.718 124.782 327.104 156.021 314.879C107.411 284.961 75 231.267 75 170C75 76.1116 151.112 0 245 0ZM245 80.8428C195.76 80.8428 155.843 120.76 155.843 170C155.843 219.24 195.76 259.157 245 259.157C294.24 259.157 334.157 219.24 334.157 170C334.157 120.76 294.24 80.8428 245 80.8428Z" fill="white"/>
</svg>
