<svg width="789" height="451" viewBox="0 0 789 451" fill="none" xmlns="http://www.w3.org/2000/svg">
<path d="M717.645 0C757.053 0 789 31.957 789 71.3779C789 92.4693 771.277 108.913 751.771 116.935C711.652 133.431 683.104 175.816 683.104 225.5C683.104 275.184 711.652 317.569 751.771 334.065C771.277 342.087 789 358.531 789 379.622C789 419.043 757.053 451 717.645 451H71.3555C31.947 451 4.94699e-05 419.043 0 379.622C0 358.531 17.7229 342.087 37.2295 334.065C77.3479 317.569 105.896 275.184 105.896 225.5C105.896 175.816 77.3479 133.431 37.2295 116.935C17.7229 108.913 0 92.4693 0 71.3779C5.35854e-05 31.957 31.947 0 71.3555 0H717.645ZM485.581 236.229C473.219 236.229 462.311 238.775 452.857 243.867C443.404 249.202 435.89 256.718 430.314 266.417C424.739 275.873 421.951 287.27 421.951 300.606C421.951 313.7 424.739 325.217 430.314 335.158C436.132 344.857 443.767 352.374 453.221 357.708C462.674 362.8 473.339 365.347 485.217 365.347C497.579 365.347 508.365 362.679 517.576 357.345C526.787 352.495 534.181 345.221 539.756 335.522C545.573 325.581 548.482 313.942 548.482 300.606C548.482 293.817 547.634 287.633 545.938 282.057C544.483 276.237 542.301 270.903 539.393 266.054C533.818 256.84 526.303 249.566 516.85 244.231C507.639 238.897 497.216 236.23 485.581 236.229ZM453.307 106.385C444.505 106.385 436.398 111.167 432.14 118.871L318.162 325.098C309.253 341.217 320.912 360.981 339.329 360.981C348.131 360.981 356.238 356.199 360.496 348.495L474.475 142.269C483.383 126.149 471.724 106.385 453.307 106.385ZM484.854 272.236C491.156 272.236 496.246 274.662 500.124 279.511C504.002 284.36 505.941 291.392 505.941 300.606C505.941 309.82 504.002 316.852 500.124 321.701C496.488 326.308 491.519 328.611 485.217 328.611C478.915 328.611 473.825 326.308 469.946 321.701C466.31 316.852 464.492 309.82 464.492 300.606C464.492 291.392 466.31 284.36 469.946 279.511C473.825 274.662 478.794 272.236 484.854 272.236ZM307.419 102.021C295.057 102.021 284.15 104.567 274.696 109.658C265.243 114.993 257.727 122.509 252.152 132.208C246.577 141.664 243.79 153.061 243.79 166.397C243.79 179.491 246.577 191.008 252.152 200.949C257.97 210.648 265.606 218.165 275.06 223.499C284.513 228.591 295.178 231.138 307.056 231.138C319.418 231.138 330.204 228.47 339.415 223.136C348.626 218.286 356.02 211.012 361.595 201.313C367.412 191.372 370.321 179.733 370.321 166.397C370.321 159.608 369.473 153.425 367.776 147.848C366.322 142.028 364.14 136.694 361.231 131.845C355.656 122.631 348.142 115.357 338.688 110.022C329.477 104.688 319.054 102.021 307.419 102.021ZM306.691 138.027C312.994 138.027 318.085 140.452 321.963 145.302C325.841 150.151 327.78 157.183 327.78 166.397C327.78 175.611 325.841 182.643 321.963 187.492C318.327 192.099 313.358 194.402 307.056 194.402C300.753 194.402 295.662 192.099 291.784 187.492C288.148 182.643 286.331 175.611 286.331 166.397C286.331 157.184 288.148 150.151 291.784 145.302C295.662 140.453 300.632 138.027 306.691 138.027Z" fill="white"/>
<path d="M717.645 0C757.053 0 789 31.957 789 71.3779C789 92.4693 771.277 108.913 751.771 116.935C711.652 133.431 683.104 175.816 683.104 225.5C683.104 275.184 711.652 317.569 751.771 334.065C771.277 342.087 789 358.531 789 379.622C789 419.043 757.053 451 717.645 451H71.3555C31.947 451 4.94699e-05 419.043 0 379.622C0 358.531 17.7229 342.087 37.2295 334.065C77.3479 317.569 105.896 275.184 105.896 225.5C105.896 175.816 77.3479 133.431 37.2295 116.935C17.7229 108.913 0 92.4693 0 71.3779C5.35854e-05 31.957 31.947 0 71.3555 0H717.645ZM485.581 236.229C473.219 236.229 462.311 238.775 452.857 243.867C443.404 249.202 435.89 256.718 430.314 266.417C424.739 275.873 421.951 287.27 421.951 300.606C421.951 313.7 424.739 325.217 430.314 335.158C436.132 344.857 443.767 352.374 453.221 357.708C462.674 362.8 473.339 365.347 485.217 365.347C497.579 365.347 508.365 362.679 517.576 357.345C526.787 352.495 534.181 345.221 539.756 335.522C545.573 325.581 548.482 313.942 548.482 300.606C548.482 293.817 547.634 287.633 545.938 282.057C544.483 276.237 542.301 270.903 539.393 266.054C533.818 256.84 526.303 249.566 516.85 244.231C507.639 238.897 497.216 236.23 485.581 236.229ZM453.307 106.385C444.505 106.385 436.398 111.167 432.14 118.871L318.162 325.098C309.253 341.217 320.912 360.981 339.329 360.981C348.131 360.981 356.238 356.199 360.496 348.495L474.475 142.269C483.383 126.149 471.724 106.385 453.307 106.385ZM484.854 272.236C491.156 272.236 496.246 274.662 500.124 279.511C504.002 284.36 505.941 291.392 505.941 300.606C505.941 309.82 504.002 316.852 500.124 321.701C496.488 326.308 491.519 328.611 485.217 328.611C478.915 328.611 473.825 326.308 469.946 321.701C466.31 316.852 464.492 309.82 464.492 300.606C464.492 291.392 466.31 284.36 469.946 279.511C473.825 274.662 478.794 272.236 484.854 272.236ZM307.419 102.021C295.057 102.021 284.15 104.567 274.696 109.658C265.243 114.993 257.727 122.509 252.152 132.208C246.577 141.664 243.79 153.061 243.79 166.397C243.79 179.491 246.577 191.008 252.152 200.949C257.97 210.648 265.606 218.165 275.06 223.499C284.513 228.591 295.178 231.138 307.056 231.138C319.418 231.138 330.204 228.47 339.415 223.136C348.626 218.286 356.02 211.012 361.595 201.313C367.412 191.372 370.321 179.733 370.321 166.397C370.321 159.608 369.473 153.425 367.776 147.848C366.322 142.028 364.14 136.694 361.231 131.845C355.656 122.631 348.142 115.357 338.688 110.022C329.477 104.688 319.054 102.021 307.419 102.021ZM306.691 138.027C312.994 138.027 318.085 140.452 321.963 145.302C325.841 150.151 327.78 157.183 327.78 166.397C327.78 175.611 325.841 182.643 321.963 187.492C318.327 192.099 313.358 194.402 307.056 194.402C300.753 194.402 295.662 192.099 291.784 187.492C288.148 182.643 286.331 175.611 286.331 166.397C286.331 157.184 288.148 150.151 291.784 145.302C295.662 140.453 300.632 138.027 306.691 138.027Z" stroke="white"/>
</svg>
