<svg width="743" height="552" viewBox="0 0 743 552" fill="none" xmlns="http://www.w3.org/2000/svg">
<path d="M368.74 196.095C433.843 196.095 496.281 221.958 542.316 267.992C588.35 314.027 614.212 376.465 614.212 441.567V499.382C614.212 528.217 590.836 551.592 562 551.593C533.164 551.593 509.788 528.218 509.787 499.382V441.567C509.787 404.16 494.926 368.283 468.475 341.832C442.024 315.381 406.148 300.521 368.74 300.521C331.333 300.521 295.457 315.381 269.006 341.832C242.555 368.283 227.694 404.159 227.694 441.566V499.382C227.693 528.217 204.317 551.592 175.482 551.593C146.646 551.592 123.269 528.217 123.269 499.381V441.566C123.269 376.464 149.132 314.027 195.166 267.992C241.201 221.958 303.638 196.095 368.74 196.095ZM272.359 34.9414C326.19 -10.1945 404.186 -11.7622 459.787 31.1748L723.56 234.868C744.323 250.902 748.157 280.732 732.123 301.495C716.089 322.258 686.259 326.092 665.495 310.058L401.723 106.365C381.453 90.7126 353.02 91.284 333.396 107.738L78.0198 321.863C57.9176 338.718 27.958 336.086 11.1028 315.984C-5.75216 295.882 -3.12023 265.923 16.9817 249.067L272.359 34.9414Z" fill="white"/>
</svg>
