<svg width="606" height="618" viewBox="0 0 606 618" fill="none" xmlns="http://www.w3.org/2000/svg">
<path d="M302.5 0C341.354 7.26214e-05 378.618 15.3508 406.092 42.6738C433.565 69.9969 449 107.056 449 145.696V180.011C449 186.417 447.045 192.368 443.696 197.309C481.03 206.591 515.494 225.876 543.151 253.533C583.189 293.571 605.683 347.875 605.684 404.497C605.683 461.12 583.189 515.424 543.151 555.462C503.113 595.5 448.809 617.994 392.187 617.994H296.491V617.993L213.495 617.994C156.873 617.994 102.57 595.5 62.5322 555.462C22.494 515.424 8.22828e-05 461.12 0 404.497C0.000164772 347.875 22.4931 293.57 62.5312 253.532C90.0441 226.019 124.293 206.791 161.402 197.453C157.994 192.484 156 186.479 156 180.011V145.695C156 107.055 171.435 69.9968 198.909 42.6738C226.383 15.3508 263.646 9.66111e-05 302.5 0ZM309.191 281.824L213.497 281.823C180.962 281.823 149.759 294.747 126.753 317.753C103.747 340.759 90.8214 371.962 90.8213 404.497C90.8213 437.032 103.746 468.235 126.752 491.241C149.758 514.247 180.961 527.173 213.496 527.173L296.491 527.171L392.187 527.172C424.722 527.172 455.925 514.246 478.931 491.24C501.936 468.235 514.861 437.032 514.861 404.497C514.861 371.962 501.936 340.76 478.931 317.754C455.925 294.749 424.722 281.823 392.188 281.823H309.191V281.824ZM302.5 61.9805C280.175 61.9805 258.764 70.8004 242.978 86.5C227.191 102.2 218.322 123.493 218.322 145.695V180.011C218.322 183.881 217.606 187.585 216.303 191.001H296.493V191H388.697C387.394 187.584 386.678 183.881 386.678 180.011V145.696C386.678 123.493 377.809 102.2 362.022 86.5C346.236 70.8004 324.825 61.9805 302.5 61.9805Z" fill="white"/>
</svg>
