<svg width="472" height="656" viewBox="0 0 472 656" fill="none" xmlns="http://www.w3.org/2000/svg">
<path d="M235.717 0C365.9 4.12337e-05 471.434 105.534 471.434 235.717C471.434 275.551 461.552 313.077 444.107 345.978C443.946 346.281 444.166 346.647 444.51 346.647C444.86 346.647 445.079 347.027 444.904 347.33L282.306 628.957C261.522 664.957 209.56 664.957 188.776 628.957L26.2677 347.485C26.0528 347.113 26.3214 346.647 26.7512 346.647C27.1729 346.647 27.4427 346.198 27.2454 345.825C9.85122 312.961 1.26005e-05 275.489 0 235.717C0 105.534 105.534 0 235.717 0ZM235.717 148.05C187.3 148.05 148.05 187.3 148.05 235.717C148.05 284.134 187.3 323.384 235.717 323.384C284.134 323.384 323.384 284.134 323.384 235.717C323.384 187.3 284.134 148.05 235.717 148.05Z" fill="#5A2898"/>
</svg>
