<svg width="589" height="596" viewBox="0 0 589 596" fill="none" xmlns="http://www.w3.org/2000/svg">
<path d="M543 504C568.405 504 589 524.595 589 550C589 575.405 568.405 596 543 596H46C20.5949 596 0 575.405 0 550C0 524.595 20.5949 504 46 504H543ZM543 264C568.405 264 589 284.595 589 310C589 335.405 568.405 356 543 356H46C20.5949 356 0 335.405 0 310C0 284.595 20.5949 264 46 264H543ZM543 0C568.405 0 589 20.5949 589 46C589 71.4051 568.405 92 543 92H46C20.5949 92 0 71.4051 0 46C0 20.5949 20.5949 0 46 0H543Z" fill="#5A2898"/>
</svg>
