<svg width="539" height="545" viewBox="0 0 539 545" fill="none" xmlns="http://www.w3.org/2000/svg">
<path d="M187 0C290.277 0 374 83.7228 374 187C374 221.015 364.916 252.908 349.045 280.388L526.151 467.334C543.623 485.777 542.836 514.891 524.394 532.363C505.951 549.836 476.836 549.049 459.363 530.606L284.842 346.388C256.378 363.898 222.869 374 187 374C83.7227 374 0 290.277 0 187C0 83.7228 83.7227 0 187 0ZM187 88.9277C132.836 88.9277 88.9277 132.836 88.9277 187C88.9277 241.164 132.836 285.072 187 285.072C241.164 285.072 285.072 241.164 285.072 187C285.072 132.836 241.164 88.9277 187 88.9277Z" fill="#5A2898"/>
</svg>
